<?xml version="1.0" encoding="UTF-8"?>
<!-- Created with Inkscape (http://www.inkscape.org/) -->
<svg width="130mm" height="55mm" version="1.1" viewBox="0 0 130 55" xmlns="http://www.w3.org/2000/svg">
 <g stroke="#fff" stroke-opacity=".07">
  <rect x=".13184" y=".13184" width="129.74" height="54.735" rx="3.1685" ry="3.1597" fill="#222" stroke-width=".26458"/>
  <g stroke-width=".26458">
   <circle cx="15" cy="15" r="10" fill="#e95420"/>
   <circle cx="40" cy="15" r="10" fill="#787859"/>
   <circle cx="65" cy="15" r="10" fill="#657b69"/>
   <circle cx="90" cy="15" r="10" fill="#4b8501"/>
   <circle cx="115" cy="15" r="10" fill="#03875b"/>
   <circle cx="15" cy="40" r="10" fill="#308280"/>
   <circle cx="40" cy="40" r="10" fill="#0073e5"/>
   <circle cx="65" cy="40" r="10" fill="#7764d8"/>
   <circle cx="90" cy="40" r="10" fill="#b34cb3"/>
   <circle cx="115" cy="40" r="10" fill="#da3450"/>
  </g>
 </g>
 <text transform="matrix(.26458 0 0 .26458 5 0)" fill="#da3450" style="shape-inside:url(#rect10671);white-space:pre" xml:space="preserve"/>
 <text transform="matrix(.26458 0 0 .26458 5 0)" fill="#000000" font-family="Cantarell" font-size="17.333px" font-weight="bold" text-align="center" style="shape-inside:url(#rect16048);white-space:pre" xml:space="preserve"/>
 <g fill="#fdfdfd" font-family="Cantarell" font-size="3.8806px" font-weight="bold" stroke-width=".26458" text-anchor="middle">
  <text x="39.809673" y="16.671635" text-align="center" xml:space="preserve"><tspan x="39.809673" y="16.671635" fill="#fdfdfd" font-size="3.8806px" stroke-width=".26458">Bark</tspan></text>
  <text x="65.027512" y="16.084614" text-align="center" xml:space="preserve"><tspan x="65.027512" y="16.084614" fill="#fdfdfd" font-size="3.8806px" stroke-width=".26458">Sage</tspan></text>
  <text x="89.995415" y="16.671635" text-align="center" xml:space="preserve"><tspan x="89.995415" y="16.671635" fill="#fdfdfd" font-size="3.8806px" stroke-width=".26458">Olive</tspan></text>
  <text x="15.137579" y="41.671635" text-align="center" xml:space="preserve"><tspan x="15.137579" y="41.671635" fill="#fdfdfd" font-size="3.8806px" stroke-width=".26458">Viridian</tspan></text>
  <text x="114.95872" y="13.791563" text-align="center" xml:space="preserve"><tspan x="114.95872" y="13.791563">Prussian</tspan><tspan x="114.95872" y="19.083225">Green</tspan></text>
  <text x="39.912861" y="41.671635" text-align="center" xml:space="preserve"><tspan x="39.912861" y="41.671635" fill="#fdfdfd" font-size="3.8806px" stroke-width=".26458">Blue</tspan></text>
  <text x="64.912865" y="41.196972" text-align="center" xml:space="preserve"><tspan x="64.912865" y="41.196972" fill="#fdfdfd" font-size="3.8806px" stroke-width=".26458">Purple</tspan></text>
  <text x="89.958717" y="41.063976" text-align="center" xml:space="preserve"><tspan x="89.958717" y="41.063976" fill="#fdfdfd" font-size="3.8806px" stroke-width=".26458">Magenta</tspan></text>
  <text x="114.97935" y="41.671635" text-align="center" xml:space="preserve"><tspan x="114.97935" y="41.671635" fill="#fdfdfd" font-size="3.8806px" stroke-width=".26458">Red</tspan></text>
  <text x="14.995411" y="16.084614" text-align="center" xml:space="preserve"><tspan x="14.995411" y="16.084614" fill="#fdfdfd" font-size="3.8806px" stroke-width=".26458">Orange</tspan></text>
 </g>
</svg>
